<?xml version="1.0" encoding="UTF-8" standalone="no"?>
<!DOCTYPE svg PUBLIC "-//W3C//DTD SVG 1.1//EN"
 "http://www.w3.org/Graphics/SVG/1.1/DTD/svg11.dtd">
<!-- Generated by graphviz version 12.2.1 (0)
 -->
<!-- Pages: 1 -->
<svg width="362pt" height="260pt"
 viewBox="0.00 0.00 361.75 260.00" xmlns="http://www.w3.org/2000/svg" xmlns:xlink="http://www.w3.org/1999/xlink">
<g id="graph0" class="graph" transform="scale(1 1) rotate(0) translate(4 256)">
<polygon fill="white" stroke="none" points="-4,4 -4,-256 357.75,-256 357.75,4 -4,4"/>
<!-- 0 -->
<g id="node1" class="node">
<title>0</title>
<polygon fill="none" stroke="black" points="268,-108 214,-108 214,-72 268,-72 268,-108"/>
<text text-anchor="middle" x="241" y="-85.33" font-family="Times,serif" font-size="14.00">belt</text>
</g>
<!-- 1 -->
<g id="node2" class="node">
<title>1</title>
<polygon fill="none" stroke="black" points="353.75,-252 270.25,-252 270.25,-216 353.75,-216 353.75,-252"/>
<text text-anchor="middle" x="312" y="-229.32" font-family="Times,serif" font-size="14.00">crusty&#45;db</text>
</g>
<!-- 2 -->
<g id="node3" class="node">
<title>2</title>
<polygon fill="none" stroke="black" points="188,-180 134,-180 134,-144 188,-144 188,-180"/>
<text text-anchor="middle" x="161" y="-157.32" font-family="Times,serif" font-size="14.00">kv</text>
</g>
<!-- 1&#45;&gt;2 -->
<g id="edge1" class="edge">
<title>1&#45;&gt;2</title>
<path fill="none" stroke="black" d="M273.89,-215.54C253.75,-206.3 228.4,-194.62 198.45,-180.66"/>
<polygon fill="black" stroke="black" points="200.03,-177.53 189.49,-176.48 197.07,-183.88 200.03,-177.53"/>
</g>
<!-- 5 -->
<g id="node6" class="node">
<title>5</title>
<polygon fill="none" stroke="black" points="353.75,-180 294.25,-180 294.25,-144 353.75,-144 353.75,-180"/>
<text text-anchor="middle" x="324" y="-157.32" font-family="Times,serif" font-size="14.00">model</text>
</g>
<!-- 1&#45;&gt;5 -->
<g id="edge2" class="edge">
<title>1&#45;&gt;5</title>
<path fill="none" stroke="black" d="M314.97,-215.7C316.23,-208.32 317.74,-199.52 319.16,-191.25"/>
<polygon fill="black" stroke="black" points="322.57,-192.04 320.81,-181.6 315.67,-190.86 322.57,-192.04"/>
</g>
<!-- 3 -->
<g id="node4" class="node">
<title>3</title>
<polygon fill="none" stroke="black" points="248,-36 178,-36 178,0 248,0 248,-36"/>
<text text-anchor="middle" x="213" y="-13.32" font-family="Times,serif" font-size="14.00">slugger</text>
</g>
<!-- 2&#45;&gt;3 -->
<g id="edge3" class="edge">
<title>2&#45;&gt;3</title>
<path fill="none" stroke="black" d="M147.65,-143.51C135.28,-124.98 120.51,-95.26 133,-72 140.67,-57.71 154.08,-46.62 167.76,-38.37"/>
<polygon fill="black" stroke="black" points="169.31,-41.51 176.36,-33.59 165.91,-35.39 169.31,-41.51"/>
</g>
<!-- 4 -->
<g id="node5" class="node">
<title>4</title>
<polygon fill="none" stroke="black" points="196,-108 142,-108 142,-72 196,-72 196,-108"/>
<text text-anchor="middle" x="169" y="-85.33" font-family="Times,serif" font-size="14.00">starc</text>
</g>
<!-- 2&#45;&gt;4 -->
<g id="edge4" class="edge">
<title>2&#45;&gt;4</title>
<path fill="none" stroke="black" d="M162.98,-143.7C163.81,-136.41 164.8,-127.73 165.74,-119.54"/>
<polygon fill="black" stroke="black" points="169.22,-119.94 166.87,-109.61 162.26,-119.15 169.22,-119.94"/>
</g>
<!-- 6 -->
<g id="node7" class="node">
<title>6</title>
<polygon fill="none" stroke="black" points="340,-108 286,-108 286,-72 340,-72 340,-108"/>
<text text-anchor="middle" x="313" y="-85.33" font-family="Times,serif" font-size="14.00">dvf</text>
</g>
<!-- 5&#45;&gt;6 -->
<g id="edge5" class="edge">
<title>5&#45;&gt;6</title>
<path fill="none" stroke="black" d="M321.28,-143.7C320.12,-136.32 318.74,-127.52 317.44,-119.25"/>
<polygon fill="black" stroke="black" points="320.93,-118.93 315.92,-109.6 314.02,-120.02 320.93,-118.93"/>
</g>
<!-- 6&#45;&gt;3 -->
<g id="edge6" class="edge">
<title>6&#45;&gt;3</title>
<path fill="none" stroke="black" d="M288.02,-71.52C275.64,-62.85 260.5,-52.25 247.07,-42.85"/>
<polygon fill="black" stroke="black" points="249.1,-40 238.9,-37.13 245.08,-45.73 249.1,-40"/>
</g>
<!-- 7 -->
<g id="node8" class="node">
<title>7</title>
<polygon fill="none" stroke="black" points="228.25,-252 117.75,-252 117.75,-216 228.25,-216 228.25,-252"/>
<text text-anchor="middle" x="173" y="-229.32" font-family="Times,serif" font-size="14.00">kv&#45;mock&#45;impl</text>
</g>
<!-- 7&#45;&gt;2 -->
<g id="edge7" class="edge">
<title>7&#45;&gt;2</title>
<path fill="none" stroke="black" d="M170.03,-215.7C168.77,-208.32 167.26,-199.52 165.84,-191.25"/>
<polygon fill="black" stroke="black" points="169.33,-190.86 164.19,-181.6 162.43,-192.04 169.33,-190.86"/>
</g>
<!-- 8 -->
<g id="node9" class="node">
<title>8</title>
<polygon fill="none" stroke="black" points="100,-252 0,-252 0,-216 100,-216 100,-252"/>
<text text-anchor="middle" x="50" y="-229.32" font-family="Times,serif" font-size="14.00">kv&#45;tikv&#45;impl</text>
</g>
<!-- 8&#45;&gt;2 -->
<g id="edge8" class="edge">
<title>8&#45;&gt;2</title>
<path fill="none" stroke="black" d="M77.72,-215.52C91.74,-206.68 108.93,-195.84 124.05,-186.3"/>
<polygon fill="black" stroke="black" points="125.76,-189.36 132.35,-181.07 122.02,-183.44 125.76,-189.36"/>
</g>
<!-- 9 -->
<g id="node10" class="node">
<title>9</title>
<polygon fill="none" stroke="black" points="276,-180 206,-180 206,-144 276,-144 276,-180"/>
<text text-anchor="middle" x="241" y="-157.32" font-family="Times,serif" font-size="14.00">storage</text>
</g>
<!-- 9&#45;&gt;0 -->
<g id="edge9" class="edge">
<title>9&#45;&gt;0</title>
<path fill="none" stroke="black" d="M241,-143.7C241,-136.41 241,-127.73 241,-119.54"/>
<polygon fill="black" stroke="black" points="244.5,-119.62 241,-109.62 237.5,-119.62 244.5,-119.62"/>
</g>
<!-- 9&#45;&gt;6 -->
<g id="edge10" class="edge">
<title>9&#45;&gt;6</title>
<path fill="none" stroke="black" d="M258.8,-143.7C267.28,-135.45 277.59,-125.43 286.93,-116.35"/>
<polygon fill="black" stroke="black" points="289.34,-118.88 294.07,-109.4 284.46,-113.86 289.34,-118.88"/>
</g>
</g>
</svg>
