<?xml version="1.0" encoding="UTF-8" standalone="no"?>
<!DOCTYPE svg PUBLIC "-//W3C//DTD SVG 1.1//EN"
 "http://www.w3.org/Graphics/SVG/1.1/DTD/svg11.dtd">
<!-- Generated by graphviz version 12.2.1 (0)
 -->
<!-- Pages: 1 -->
<svg width="296pt" height="260pt"
 viewBox="0.00 0.00 296.25 260.00" xmlns="http://www.w3.org/2000/svg" xmlns:xlink="http://www.w3.org/1999/xlink">
<g id="graph0" class="graph" transform="scale(1 1) rotate(0) translate(4 256)">
<polygon fill="white" stroke="none" points="-4,4 -4,-256 292.25,-256 292.25,4 -4,4"/>
<!-- 0 -->
<g id="node1" class="node">
<title>0</title>
<polygon fill="none" stroke="black" points="62,-108 8,-108 8,-72 62,-72 62,-108"/>
<text text-anchor="middle" x="35" y="-85.33" font-family="Times,serif" font-size="14.00">belt</text>
</g>
<!-- 1 -->
<g id="node2" class="node">
<title>1</title>
<polygon fill="none" stroke="black" points="159.75,-252 76.25,-252 76.25,-216 159.75,-216 159.75,-252"/>
<text text-anchor="middle" x="118" y="-229.32" font-family="Times,serif" font-size="14.00">crusty&#45;db</text>
</g>
<!-- 2 -->
<g id="node3" class="node">
<title>2</title>
<polygon fill="none" stroke="black" points="235,-180 181,-180 181,-144 235,-144 235,-180"/>
<text text-anchor="middle" x="208" y="-157.32" font-family="Times,serif" font-size="14.00">kv</text>
</g>
<!-- 1&#45;&gt;2 -->
<g id="edge1" class="edge">
<title>1&#45;&gt;2</title>
<path fill="none" stroke="black" d="M140.25,-215.7C151.28,-207.11 164.79,-196.61 176.84,-187.24"/>
<polygon fill="black" stroke="black" points="178.76,-190.18 184.5,-181.28 174.46,-184.65 178.76,-190.18"/>
</g>
<!-- 5 -->
<g id="node6" class="node">
<title>5</title>
<polygon fill="none" stroke="black" points="147.75,-180 88.25,-180 88.25,-144 147.75,-144 147.75,-180"/>
<text text-anchor="middle" x="118" y="-157.32" font-family="Times,serif" font-size="14.00">model</text>
</g>
<!-- 1&#45;&gt;5 -->
<g id="edge2" class="edge">
<title>1&#45;&gt;5</title>
<path fill="none" stroke="black" d="M118,-215.7C118,-208.41 118,-199.73 118,-191.54"/>
<polygon fill="black" stroke="black" points="121.5,-191.62 118,-181.62 114.5,-191.62 121.5,-191.62"/>
</g>
<!-- 3 -->
<g id="node4" class="node">
<title>3</title>
<polygon fill="none" stroke="black" points="175,-36 105,-36 105,0 175,0 175,-36"/>
<text text-anchor="middle" x="140" y="-13.32" font-family="Times,serif" font-size="14.00">slugger</text>
</g>
<!-- 2&#45;&gt;3 -->
<g id="edge3" class="edge">
<title>2&#45;&gt;3</title>
<path fill="none" stroke="black" d="M199.66,-143.59C188.03,-119.29 166.8,-74.97 153.06,-46.27"/>
<polygon fill="black" stroke="black" points="156.32,-44.98 148.85,-37.48 150.01,-48.01 156.32,-44.98"/>
</g>
<!-- 4 -->
<g id="node5" class="node">
<title>4</title>
<polygon fill="none" stroke="black" points="250,-108 196,-108 196,-72 250,-72 250,-108"/>
<text text-anchor="middle" x="223" y="-85.33" font-family="Times,serif" font-size="14.00">starc</text>
</g>
<!-- 2&#45;&gt;4 -->
<g id="edge4" class="edge">
<title>2&#45;&gt;4</title>
<path fill="none" stroke="black" d="M211.71,-143.7C213.29,-136.32 215.17,-127.52 216.95,-119.25"/>
<polygon fill="black" stroke="black" points="220.34,-120.1 219.02,-109.58 213.5,-118.63 220.34,-120.1"/>
</g>
<!-- 6 -->
<g id="node7" class="node">
<title>6</title>
<polygon fill="none" stroke="black" points="140,-108 86,-108 86,-72 140,-72 140,-108"/>
<text text-anchor="middle" x="113" y="-85.33" font-family="Times,serif" font-size="14.00">dvf</text>
</g>
<!-- 5&#45;&gt;6 -->
<g id="edge5" class="edge">
<title>5&#45;&gt;6</title>
<path fill="none" stroke="black" d="M116.76,-143.7C116.24,-136.41 115.62,-127.73 115.04,-119.54"/>
<polygon fill="black" stroke="black" points="118.53,-119.34 114.33,-109.61 111.55,-119.84 118.53,-119.34"/>
</g>
<!-- 6&#45;&gt;3 -->
<g id="edge6" class="edge">
<title>6&#45;&gt;3</title>
<path fill="none" stroke="black" d="M119.67,-71.7C122.58,-64.15 126.07,-55.12 129.32,-46.68"/>
<polygon fill="black" stroke="black" points="132.52,-48.11 132.86,-37.52 125.99,-45.59 132.52,-48.11"/>
</g>
<!-- 7 -->
<g id="node8" class="node">
<title>7</title>
<polygon fill="none" stroke="black" points="288.25,-252 177.75,-252 177.75,-216 288.25,-216 288.25,-252"/>
<text text-anchor="middle" x="233" y="-229.32" font-family="Times,serif" font-size="14.00">kv&#45;mock&#45;impl</text>
</g>
<!-- 7&#45;&gt;2 -->
<g id="edge7" class="edge">
<title>7&#45;&gt;2</title>
<path fill="none" stroke="black" d="M226.82,-215.7C224.13,-208.15 220.9,-199.12 217.89,-190.68"/>
<polygon fill="black" stroke="black" points="221.28,-189.77 214.62,-181.53 214.69,-192.12 221.28,-189.77"/>
</g>
<!-- 8 -->
<g id="node9" class="node">
<title>8</title>
<polygon fill="none" stroke="black" points="70,-180 0,-180 0,-144 70,-144 70,-180"/>
<text text-anchor="middle" x="35" y="-157.32" font-family="Times,serif" font-size="14.00">storage</text>
</g>
<!-- 8&#45;&gt;0 -->
<g id="edge8" class="edge">
<title>8&#45;&gt;0</title>
<path fill="none" stroke="black" d="M35,-143.7C35,-136.41 35,-127.73 35,-119.54"/>
<polygon fill="black" stroke="black" points="38.5,-119.62 35,-109.62 31.5,-119.62 38.5,-119.62"/>
</g>
<!-- 8&#45;&gt;6 -->
<g id="edge9" class="edge">
<title>8&#45;&gt;6</title>
<path fill="none" stroke="black" d="M54.28,-143.7C63.66,-135.28 75.09,-125.02 85.38,-115.79"/>
<polygon fill="black" stroke="black" points="87.44,-118.64 92.54,-109.36 82.76,-113.43 87.44,-118.64"/>
</g>
</g>
</svg>
