<?xml version="1.0" encoding="UTF-8" standalone="no"?>
<!DOCTYPE svg PUBLIC "-//W3C//DTD SVG 1.1//EN"
 "http://www.w3.org/Graphics/SVG/1.1/DTD/svg11.dtd">
<!-- Generated by graphviz version 12.2.1 (0)
 -->
<!-- Pages: 1 -->
<svg width="321pt" height="260pt"
 viewBox="0.00 0.00 320.75 260.00" xmlns="http://www.w3.org/2000/svg" xmlns:xlink="http://www.w3.org/1999/xlink">
<g id="graph0" class="graph" transform="scale(1 1) rotate(0) translate(4 256)">
<polygon fill="white" stroke="none" points="-4,4 -4,-256 316.75,-256 316.75,4 -4,4"/>
<!-- 0 -->
<g id="node1" class="node">
<title>0</title>
<polygon fill="none" stroke="black" points="130.75,-108 76.75,-108 76.75,-72 130.75,-72 130.75,-108"/>
<text text-anchor="middle" x="103.75" y="-85.33" font-family="Times,serif" font-size="14.00">belt</text>
</g>
<!-- 1 -->
<g id="node2" class="node">
<title>1</title>
<polygon fill="none" stroke="black" points="217.5,-252 134,-252 134,-216 217.5,-216 217.5,-252"/>
<text text-anchor="middle" x="175.75" y="-229.32" font-family="Times,serif" font-size="14.00">crusty&#45;db</text>
</g>
<!-- 2 -->
<g id="node3" class="node">
<title>2</title>
<polygon fill="none" stroke="black" points="202.75,-108 148.75,-108 148.75,-72 202.75,-72 202.75,-108"/>
<text text-anchor="middle" x="175.75" y="-85.33" font-family="Times,serif" font-size="14.00">hex</text>
</g>
<!-- 1&#45;&gt;2 -->
<g id="edge1" class="edge">
<title>1&#45;&gt;2</title>
<path fill="none" stroke="black" d="M175.75,-215.59C175.75,-191.61 175.75,-148.14 175.75,-119.42"/>
<polygon fill="black" stroke="black" points="179.25,-119.62 175.75,-109.62 172.25,-119.62 179.25,-119.62"/>
</g>
<!-- 4 -->
<g id="node5" class="node">
<title>4</title>
<polygon fill="none" stroke="black" points="257.75,-180 203.75,-180 203.75,-144 257.75,-144 257.75,-180"/>
<text text-anchor="middle" x="230.75" y="-157.32" font-family="Times,serif" font-size="14.00">kv</text>
</g>
<!-- 1&#45;&gt;4 -->
<g id="edge2" class="edge">
<title>1&#45;&gt;4</title>
<path fill="none" stroke="black" d="M189.35,-215.7C195.67,-207.64 203.33,-197.89 210.34,-188.98"/>
<polygon fill="black" stroke="black" points="212.95,-191.32 216.38,-181.29 207.45,-187 212.95,-191.32"/>
</g>
<!-- 7 -->
<g id="node8" class="node">
<title>7</title>
<polygon fill="none" stroke="black" points="59.5,-180 0,-180 0,-144 59.5,-144 59.5,-180"/>
<text text-anchor="middle" x="29.75" y="-157.32" font-family="Times,serif" font-size="14.00">model</text>
</g>
<!-- 1&#45;&gt;7 -->
<g id="edge3" class="edge">
<title>1&#45;&gt;7</title>
<path fill="none" stroke="black" d="M139.28,-215.52C118.24,-205.42 91.73,-192.71 70.06,-182.33"/>
<polygon fill="black" stroke="black" points="71.75,-179.26 61.22,-178.09 68.72,-185.57 71.75,-179.26"/>
</g>
<!-- 3 -->
<g id="node4" class="node">
<title>3</title>
<polygon fill="none" stroke="black" points="206.25,-36 145.25,-36 145.25,0 206.25,0 206.25,-36"/>
<text text-anchor="middle" x="175.75" y="-13.32" font-family="Times,serif" font-size="14.00">health</text>
</g>
<!-- 2&#45;&gt;3 -->
<g id="edge4" class="edge">
<title>2&#45;&gt;3</title>
<path fill="none" stroke="black" d="M175.75,-71.7C175.75,-64.41 175.75,-55.73 175.75,-47.54"/>
<polygon fill="black" stroke="black" points="179.25,-47.62 175.75,-37.62 172.25,-47.62 179.25,-47.62"/>
</g>
<!-- 4&#45;&gt;2 -->
<g id="edge5" class="edge">
<title>4&#45;&gt;2</title>
<path fill="none" stroke="black" d="M217.15,-143.7C210.83,-135.64 203.17,-125.89 196.16,-116.98"/>
<polygon fill="black" stroke="black" points="199.05,-115 190.12,-109.29 193.55,-119.32 199.05,-115"/>
</g>
<!-- 5 -->
<g id="node6" class="node">
<title>5</title>
<polygon fill="none" stroke="black" points="96.75,-36 26.75,-36 26.75,0 96.75,0 96.75,-36"/>
<text text-anchor="middle" x="61.75" y="-13.32" font-family="Times,serif" font-size="14.00">slugger</text>
</g>
<!-- 4&#45;&gt;5 -->
<g id="edge6" class="edge">
<title>4&#45;&gt;5</title>
<path fill="none" stroke="black" d="M231.77,-143.75C231.98,-124.04 229.27,-91.94 211.75,-72 197.77,-56.09 146.71,-40.22 108.01,-30.05"/>
<polygon fill="black" stroke="black" points="108.98,-26.69 98.43,-27.59 107.24,-33.47 108.98,-26.69"/>
</g>
<!-- 6 -->
<g id="node7" class="node">
<title>6</title>
<polygon fill="none" stroke="black" points="312.75,-108 258.75,-108 258.75,-72 312.75,-72 312.75,-108"/>
<text text-anchor="middle" x="285.75" y="-85.33" font-family="Times,serif" font-size="14.00">starc</text>
</g>
<!-- 4&#45;&gt;6 -->
<g id="edge7" class="edge">
<title>4&#45;&gt;6</title>
<path fill="none" stroke="black" d="M244.35,-143.7C250.67,-135.64 258.33,-125.89 265.34,-116.98"/>
<polygon fill="black" stroke="black" points="267.95,-119.32 271.38,-109.29 262.45,-115 267.95,-119.32"/>
</g>
<!-- 8 -->
<g id="node9" class="node">
<title>8</title>
<polygon fill="none" stroke="black" points="58.75,-108 4.75,-108 4.75,-72 58.75,-72 58.75,-108"/>
<text text-anchor="middle" x="31.75" y="-85.33" font-family="Times,serif" font-size="14.00">dvf</text>
</g>
<!-- 7&#45;&gt;8 -->
<g id="edge8" class="edge">
<title>7&#45;&gt;8</title>
<path fill="none" stroke="black" d="M30.24,-143.7C30.45,-136.41 30.7,-127.73 30.93,-119.54"/>
<polygon fill="black" stroke="black" points="34.43,-119.71 31.22,-109.62 27.43,-119.51 34.43,-119.71"/>
</g>
<!-- 8&#45;&gt;5 -->
<g id="edge9" class="edge">
<title>8&#45;&gt;5</title>
<path fill="none" stroke="black" d="M39.17,-71.7C42.4,-64.15 46.27,-55.12 49.89,-46.68"/>
<polygon fill="black" stroke="black" points="53.1,-48.07 53.82,-37.5 46.67,-45.31 53.1,-48.07"/>
</g>
<!-- 9 -->
<g id="node10" class="node">
<title>9</title>
<polygon fill="none" stroke="black" points="298,-252 235.5,-252 235.5,-216 298,-216 298,-252"/>
<text text-anchor="middle" x="266.75" y="-229.32" font-family="Times,serif" font-size="14.00">names</text>
</g>
<!-- 10 -->
<g id="node11" class="node">
<title>10</title>
<polygon fill="none" stroke="black" points="147.75,-180 77.75,-180 77.75,-144 147.75,-144 147.75,-180"/>
<text text-anchor="middle" x="112.75" y="-157.32" font-family="Times,serif" font-size="14.00">storage</text>
</g>
<!-- 10&#45;&gt;0 -->
<g id="edge10" class="edge">
<title>10&#45;&gt;0</title>
<path fill="none" stroke="black" d="M110.53,-143.7C109.58,-136.32 108.45,-127.52 107.38,-119.25"/>
<polygon fill="black" stroke="black" points="110.89,-119.08 106.14,-109.61 103.95,-119.97 110.89,-119.08"/>
</g>
<!-- 10&#45;&gt;2 -->
<g id="edge12" class="edge">
<title>10&#45;&gt;2</title>
<path fill="none" stroke="black" d="M128.32,-143.7C135.72,-135.47 144.72,-125.48 152.87,-116.42"/>
<polygon fill="black" stroke="black" points="155.26,-119 159.34,-109.23 150.05,-114.32 155.26,-119"/>
</g>
<!-- 10&#45;&gt;8 -->
<g id="edge11" class="edge">
<title>10&#45;&gt;8</title>
<path fill="none" stroke="black" d="M92.73,-143.7C82.99,-135.28 71.11,-125.02 60.44,-115.79"/>
<polygon fill="black" stroke="black" points="62.82,-113.23 52.97,-109.34 58.25,-118.52 62.82,-113.23"/>
</g>
</g>
</svg>
