<?xml version="1.0" encoding="UTF-8" standalone="no"?>
<!DOCTYPE svg PUBLIC "-//W3C//DTD SVG 1.1//EN"
 "http://www.w3.org/Graphics/SVG/1.1/DTD/svg11.dtd">
<!-- Generated by graphviz version 12.2.1 (0)
 -->
<!-- Pages: 1 -->
<svg width="257pt" height="260pt"
 viewBox="0.00 0.00 257.00 260.00" xmlns="http://www.w3.org/2000/svg" xmlns:xlink="http://www.w3.org/1999/xlink">
<g id="graph0" class="graph" transform="scale(1 1) rotate(0) translate(4 256)">
<polygon fill="white" stroke="none" points="-4,4 -4,-256 253,-256 253,4 -4,4"/>
<!-- 0 -->
<g id="node1" class="node">
<title>0</title>
<polygon fill="none" stroke="black" points="62,-108 8,-108 8,-72 62,-72 62,-108"/>
<text text-anchor="middle" x="35" y="-85.33" font-family="Times,serif" font-size="14.00">belt</text>
</g>
<!-- 1 -->
<g id="node2" class="node">
<title>1</title>
<polygon fill="none" stroke="black" points="196.75,-252 113.25,-252 113.25,-216 196.75,-216 196.75,-252"/>
<text text-anchor="middle" x="155" y="-229.32" font-family="Times,serif" font-size="14.00">crusty&#45;db</text>
</g>
<!-- 2 -->
<g id="node3" class="node">
<title>2</title>
<polygon fill="none" stroke="black" points="220,-180 166,-180 166,-144 220,-144 220,-180"/>
<text text-anchor="middle" x="193" y="-157.32" font-family="Times,serif" font-size="14.00">kv</text>
</g>
<!-- 1&#45;&gt;2 -->
<g id="edge1" class="edge">
<title>1&#45;&gt;2</title>
<path fill="none" stroke="black" d="M164.39,-215.7C168.58,-207.98 173.61,-198.71 178.28,-190.11"/>
<polygon fill="black" stroke="black" points="181.3,-191.89 182.99,-181.43 175.15,-188.55 181.3,-191.89"/>
</g>
<!-- 5 -->
<g id="node6" class="node">
<title>5</title>
<polygon fill="none" stroke="black" points="147.75,-180 88.25,-180 88.25,-144 147.75,-144 147.75,-180"/>
<text text-anchor="middle" x="118" y="-157.32" font-family="Times,serif" font-size="14.00">model</text>
</g>
<!-- 1&#45;&gt;5 -->
<g id="edge2" class="edge">
<title>1&#45;&gt;5</title>
<path fill="none" stroke="black" d="M145.85,-215.7C141.78,-207.98 136.88,-198.71 132.33,-190.11"/>
<polygon fill="black" stroke="black" points="135.52,-188.65 127.75,-181.44 129.33,-191.92 135.52,-188.65"/>
</g>
<!-- 3 -->
<g id="node4" class="node">
<title>3</title>
<polygon fill="none" stroke="black" points="174,-36 104,-36 104,0 174,0 174,-36"/>
<text text-anchor="middle" x="139" y="-13.32" font-family="Times,serif" font-size="14.00">slugger</text>
</g>
<!-- 2&#45;&gt;3 -->
<g id="edge3" class="edge">
<title>2&#45;&gt;3</title>
<path fill="none" stroke="black" d="M186.38,-143.59C177.18,-119.4 160.43,-75.36 149.52,-46.65"/>
<polygon fill="black" stroke="black" points="152.87,-45.63 146.04,-37.53 146.33,-48.12 152.87,-45.63"/>
</g>
<!-- 4 -->
<g id="node5" class="node">
<title>4</title>
<polygon fill="none" stroke="black" points="249,-108 195,-108 195,-72 249,-72 249,-108"/>
<text text-anchor="middle" x="222" y="-85.33" font-family="Times,serif" font-size="14.00">starc</text>
</g>
<!-- 2&#45;&gt;4 -->
<g id="edge4" class="edge">
<title>2&#45;&gt;4</title>
<path fill="none" stroke="black" d="M200.17,-143.7C203.29,-136.15 207.04,-127.12 210.53,-118.68"/>
<polygon fill="black" stroke="black" points="213.74,-120.08 214.33,-109.5 207.27,-117.4 213.74,-120.08"/>
</g>
<!-- 6 -->
<g id="node7" class="node">
<title>6</title>
<polygon fill="none" stroke="black" points="139,-108 85,-108 85,-72 139,-72 139,-108"/>
<text text-anchor="middle" x="112" y="-85.33" font-family="Times,serif" font-size="14.00">dvf</text>
</g>
<!-- 5&#45;&gt;6 -->
<g id="edge5" class="edge">
<title>5&#45;&gt;6</title>
<path fill="none" stroke="black" d="M116.52,-143.7C115.89,-136.41 115.15,-127.73 114.45,-119.54"/>
<polygon fill="black" stroke="black" points="117.94,-119.28 113.6,-109.61 110.96,-119.87 117.94,-119.28"/>
</g>
<!-- 6&#45;&gt;3 -->
<g id="edge6" class="edge">
<title>6&#45;&gt;3</title>
<path fill="none" stroke="black" d="M118.67,-71.7C121.58,-64.15 125.07,-55.12 128.32,-46.68"/>
<polygon fill="black" stroke="black" points="131.52,-48.11 131.86,-37.52 124.99,-45.59 131.52,-48.11"/>
</g>
<!-- 7 -->
<g id="node8" class="node">
<title>7</title>
<polygon fill="none" stroke="black" points="70,-180 0,-180 0,-144 70,-144 70,-180"/>
<text text-anchor="middle" x="35" y="-157.32" font-family="Times,serif" font-size="14.00">storage</text>
</g>
<!-- 7&#45;&gt;0 -->
<g id="edge7" class="edge">
<title>7&#45;&gt;0</title>
<path fill="none" stroke="black" d="M35,-143.7C35,-136.41 35,-127.73 35,-119.54"/>
<polygon fill="black" stroke="black" points="38.5,-119.62 35,-109.62 31.5,-119.62 38.5,-119.62"/>
</g>
<!-- 7&#45;&gt;6 -->
<g id="edge8" class="edge">
<title>7&#45;&gt;6</title>
<path fill="none" stroke="black" d="M54.03,-143.7C63.2,-135.37 74.35,-125.22 84.43,-116.07"/>
<polygon fill="black" stroke="black" points="86.75,-118.68 91.8,-109.37 82.04,-113.5 86.75,-118.68"/>
</g>
</g>
</svg>
